<mxfile host="app.diagrams.net" agent="Mozilla/5.0 (Windows NT 10.0; Win64; x64) AppleWebKit/537.36 (KHTML, like Gecko) Chrome/127.0.0.0 Safari/537.36" version="24.8.3">
  <diagram name="Page-1" id="9hLHZT1XrzDN9zCeCakS">
    <mxGraphModel dx="472" dy="745" grid="1" gridSize="10" guides="1" tooltips="1" connect="1" arrows="1" fold="1" page="1" pageScale="1" pageWidth="850" pageHeight="1100" math="0" shadow="0">
      <root>
        <mxCell id="0" />
        <mxCell id="1" parent="0" />
        <mxCell id="15d7COtsj5wCZ_puCS5W-3" value="" style="edgeStyle=orthogonalEdgeStyle;rounded=0;orthogonalLoop=1;jettySize=auto;html=1;" edge="1" parent="1" source="15d7COtsj5wCZ_puCS5W-1" target="15d7COtsj5wCZ_puCS5W-2">
          <mxGeometry relative="1" as="geometry" />
        </mxCell>
        <mxCell id="15d7COtsj5wCZ_puCS5W-1" value="starts" style="strokeWidth=2;html=1;shape=mxgraph.flowchart.terminator;whiteSpace=wrap;" vertex="1" parent="1">
          <mxGeometry x="360" y="40" width="100" height="60" as="geometry" />
        </mxCell>
        <mxCell id="15d7COtsj5wCZ_puCS5W-5" value="" style="edgeStyle=orthogonalEdgeStyle;rounded=0;orthogonalLoop=1;jettySize=auto;html=1;" edge="1" parent="1" source="15d7COtsj5wCZ_puCS5W-2" target="15d7COtsj5wCZ_puCS5W-4">
          <mxGeometry relative="1" as="geometry" />
        </mxCell>
        <mxCell id="15d7COtsj5wCZ_puCS5W-2" value="display welcome" style="shape=parallelogram;perimeter=parallelogramPerimeter;whiteSpace=wrap;html=1;fixedSize=1;strokeWidth=2;" vertex="1" parent="1">
          <mxGeometry x="350" y="150" width="120" height="60" as="geometry" />
        </mxCell>
        <mxCell id="15d7COtsj5wCZ_puCS5W-7" value="" style="edgeStyle=orthogonalEdgeStyle;rounded=0;orthogonalLoop=1;jettySize=auto;html=1;" edge="1" parent="1" source="15d7COtsj5wCZ_puCS5W-4" target="15d7COtsj5wCZ_puCS5W-6">
          <mxGeometry relative="1" as="geometry" />
        </mxCell>
        <mxCell id="15d7COtsj5wCZ_puCS5W-4" value="ask the user&lt;br&gt;how old they are" style="shape=parallelogram;perimeter=parallelogramPerimeter;whiteSpace=wrap;html=1;fixedSize=1;strokeWidth=2;" vertex="1" parent="1">
          <mxGeometry x="350" y="260" width="120" height="60" as="geometry" />
        </mxCell>
        <mxCell id="15d7COtsj5wCZ_puCS5W-9" value="" style="edgeStyle=orthogonalEdgeStyle;rounded=0;orthogonalLoop=1;jettySize=auto;html=1;" edge="1" parent="1" source="15d7COtsj5wCZ_puCS5W-6" target="15d7COtsj5wCZ_puCS5W-8">
          <mxGeometry relative="1" as="geometry" />
        </mxCell>
        <mxCell id="15d7COtsj5wCZ_puCS5W-6" value="get age" style="shape=parallelogram;perimeter=parallelogramPerimeter;whiteSpace=wrap;html=1;fixedSize=1;strokeWidth=2;" vertex="1" parent="1">
          <mxGeometry x="350" y="360" width="120" height="60" as="geometry" />
        </mxCell>
        <mxCell id="15d7COtsj5wCZ_puCS5W-11" value="" style="edgeStyle=orthogonalEdgeStyle;rounded=0;orthogonalLoop=1;jettySize=auto;html=1;" edge="1" parent="1" source="15d7COtsj5wCZ_puCS5W-8" target="15d7COtsj5wCZ_puCS5W-10">
          <mxGeometry relative="1" as="geometry" />
        </mxCell>
        <mxCell id="15d7COtsj5wCZ_puCS5W-8" value="calculate retirement age&amp;nbsp;" style="whiteSpace=wrap;html=1;strokeWidth=2;" vertex="1" parent="1">
          <mxGeometry x="350" y="480" width="120" height="60" as="geometry" />
        </mxCell>
        <mxCell id="15d7COtsj5wCZ_puCS5W-14" value="" style="edgeStyle=orthogonalEdgeStyle;rounded=0;orthogonalLoop=1;jettySize=auto;html=1;" edge="1" parent="1" source="15d7COtsj5wCZ_puCS5W-10" target="15d7COtsj5wCZ_puCS5W-12">
          <mxGeometry relative="1" as="geometry" />
        </mxCell>
        <mxCell id="15d7COtsj5wCZ_puCS5W-10" value="print retirement&amp;nbsp;&lt;div&gt;message&lt;/div&gt;" style="shape=parallelogram;perimeter=parallelogramPerimeter;whiteSpace=wrap;html=1;fixedSize=1;strokeWidth=2;" vertex="1" parent="1">
          <mxGeometry x="350" y="600" width="120" height="60" as="geometry" />
        </mxCell>
        <mxCell id="15d7COtsj5wCZ_puCS5W-12" value="ends" style="strokeWidth=2;html=1;shape=mxgraph.flowchart.terminator;whiteSpace=wrap;" vertex="1" parent="1">
          <mxGeometry x="360" y="720" width="100" height="60" as="geometry" />
        </mxCell>
      </root>
    </mxGraphModel>
  </diagram>
</mxfile>
